{
  "accessors": [
    {
      "bufferView": 2,
      "componentType": 5126,
      "count": 562,
      "max": [
        1.6055814027786255,
        2.4189913272857666,
        4.1949386596679688
      ],
      "min": [
        -2.5787689685821533,
        -1.4627765417098999,
        0
      ],
      "type": "VEC3"
    },
    {
      "bufferView": 2,
      "byteOffset": 6744,
      "componentType": 5126,
      "count": 562,
      "max": [
        0.9936787486076355,
        0.99357295036315918,
        0.99630475044250488
      ],
      "min": [
        -0.99413383007049561,
        -0.99291640520095825,
        -1
      ],
      "type": "VEC3"
    },
    {
      "bufferView": 1,
      "componentType": 5126,
      "count": 562,
      "max": [
        0.15902289748191833,
        0.72434598207473755
      ],
      "min": [
        0.02972179651260376,
        0.65476071834564209
      ],
      "type": "VEC2"
    },
    {
      "bufferView": 0,
      "componentType": 5125,
      "count": 564,
      "max": [
        561
      ],
      "min": [
        0
      ],
      "type": "SCALAR"
    },
    {
      "bufferView": 2,
      "byteOffset": 13488,
      "componentType": 5126,
      "count": 1728,
      "max": [
        2.8159668445587158,
        3.4560489654541016,
        6.9797873497009277
      ],
      "min": [
        -3.4532086849212646,
        -3.2690589427947998,
        2.0867884159088135
      ],
      "type": "VEC3"
    },
    {
      "bufferView": 2,
      "byteOffset": 34224,
      "componentType": 5126,
      "count": 1728,
      "max": [
        0.99907350540161133,
        0.99807864427566528,
        0.99484336376190186
      ],
      "min": [
        -0.99062752723693848,
        -0.99455702304840088,
        -0.9962308406829834
      ],
      "type": "VEC3"
    },
    {
      "bufferView": 1,
      "byteOffset": 4496,
      "componentType": 5126,
      "count": 1728,
      "max": [
        0.22464144229888916,
        0.9579547643661499
      ],
      "min": [
        0.16016280651092529,
        0.89347612857818604
      ],
      "type": "VEC2"
    },
    {
      "bufferView": 0,
      "byteOffset": 2256,
      "componentType": 5125,
      "count": 1728,
      "max": [
        1727
      ],
      "min": [
        0
      ],
      "type": "SCALAR"
    }
  ],
  "asset": {
    "extras": {
      "author": "3Dimentional (https://sketchfab.com/insectscorch)",
      "license": "CC-BY-4.0 (http://creativecommons.org/licenses/by/4.0/)",
      "source": "https://sketchfab.com/3d-models/lowpoly-tree-game-asset-09ed6aeb11a74cc2bba18bc735d1fbed",
      "title": "Lowpoly Tree Game Asset"
    },
    "generator": "Sketchfab-8.70.0",
    "version": "2.0"
  },
  "bufferViews": [
    {
      "buffer": 0,
      "byteLength": 9168,
      "byteOffset": 0,
      "name": "floatBufferViews",
      "target": 34963
    },
    {
      "buffer": 0,
      "byteLength": 18320,
      "byteOffset": 9168,
      "byteStride": 8,
      "name": "floatBufferViews",
      "target": 34962
    },
    {
      "buffer": 0,
      "byteLength": 54960,
      "byteOffset": 27488,
      "byteStride": 12,
      "name": "floatBufferViews",
      "target": 34962
    }
  ],
  "buffers": [
    {
      "byteLength": 82448,
      "uri": "scene.bin"
    }
  ],
  "materials": [
    {
      "doubleSided": true,
      "emissiveFactor": [
        0,
        0,
        0
      ],
      "name": "wood_tree",
      "pbrMetallicRoughness": {
        "baseColorFactor": [
          0.40196900000000002,
          0.20588000000000001,
          0.075159199999999995,
          1
        ],
        "metallicFactor": 0,
        "roughnessFactor": 0.94675240600103305
      }
    },
    {
      "doubleSided": true,
      "emissiveFactor": [
        0,
        0,
        0
      ],
      "name": "leaves_tree",
      "pbrMetallicRoughness": {
        "baseColorFactor": [
          0.114375,
          0.31081300000000001,
          0.042248599999999997,
          1
        ],
        "metallicFactor": 0,
        "roughnessFactor": 0.94417434218633378
      }
    }
  ],
  "meshes": [
    {
      "name": "tree1_wood_tree_0",
      "primitives": [
        {
          "attributes": {
            "NORMAL": 1,
            "POSITION": 0,
            "TEXCOORD_0": 2
          },
          "indices": 3,
          "material": 0,
          "mode": 4
        }
      ]
    },
    {
      "name": "tree1_leaves_tree_0",
      "primitives": [
        {
          "attributes": {
            "NORMAL": 5,
            "POSITION": 4,
            "TEXCOORD_0": 6
          },
          "indices": 7,
          "material": 1,
          "mode": 4
        }
      ]
    }
  ],
  "nodes": [
    {
      "children": [
        1
      ],
      "name": "RootNode (gltf orientation matrix)",
      "rotation": [
        -0.70710678118654746,
        -0,
        -0,
        0.70710678118654757
      ]
    },
    {
      "children": [
        2
      ],
      "name": "RootNode (model correction matrix)"
    },
    {
      "children": [
        3
      ],
      "matrix": [
        1,
        0,
        0,
        0,
        0,
        0,
        1,
        0,
        0,
        -1,
        0,
        0,
        0,
        0,
        0,
        1
      ],
      "name": "417aa4a92dc74bfcaca4dff0ac43763f.fbx"
    },
    {
      "children": [
        4
      ],
      "name": "RootNode"
    },
    {
      "children": [
        5,
        6
      ],
      "matrix": [
        100,
        0,
        0,
        0,
        0,
        -1.6292067939183141e-05,
        -99.999999999998678,
        0,
        0,
        99.999999999998678,
        -1.6292067939183141e-05,
        0,
        0,
        0,
        0,
        1
      ],
      "name": "tree1"
    },
    {
      "mesh": 0,
      "name": "tree1_wood_tree_0"
    },
    {
      "mesh": 1,
      "name": "tree1_leaves_tree_0"
    }
  ],
  "scene": 0,
  "scenes": [
    {
      "name": "OSG_Scene",
      "nodes": [
        0
      ]
    }
  ]
}

