{
  "accessors": [
    {
      "bufferView": 2,
      "componentType": 5126,
      "count": 276,
      "max": [
        0.62029844522476196,
        0.50000119209289551,
        0.5
      ],
      "min": [
        -0.64742624759674072,
        -0.49999922513961792,
        -1.2884714603424072
      ],
      "type": "VEC3"
    },
    {
      "bufferView": 2,
      "byteOffset": 3312,
      "componentType": 5126,
      "count": 276,
      "max": [
        1,
        1,
        1
      ],
      "min": [
        -1,
        -1,
        -1
      ],
      "type": "VEC3"
    },
    {
      "bufferView": 3,
      "componentType": 5126,
      "count": 276,
      "max": [
        1,
        2.7917315037484514e-07,
        1,
        1
      ],
      "min": [
        -5.6445036819341215e-16,
        -2.6018526000370912e-07,
        -1,
        1
      ],
      "type": "VEC4"
    },
    {
      "bufferView": 1,
      "componentType": 5126,
      "count": 276,
      "max": [
        0.87500005960464478,
        1
      ],
      "min": [
        0.125,
        0
      ],
      "type": "VEC2"
    },
    {
      "bufferView": 0,
      "componentType": 5125,
      "count": 804,
      "max": [
        275
      ],
      "min": [
        0
      ],
      "type": "SCALAR"
    },
    {
      "bufferView": 2,
      "byteOffset": 6624,
      "componentType": 5126,
      "count": 93,
      "max": [
        0.5,
        0.2970198392868042,
        0.82512736320495605
      ],
      "min": [
        -0.5,
        -0.91713452339172363,
        -0.27994000911712646
      ],
      "type": "VEC3"
    },
    {
      "bufferView": 2,
      "byteOffset": 7740,
      "componentType": 5126,
      "count": 93,
      "max": [
        1,
        1,
        1
      ],
      "min": [
        -1,
        -1,
        -1
      ],
      "type": "VEC3"
    },
    {
      "bufferView": 3,
      "byteOffset": 4416,
      "componentType": 5126,
      "count": 93,
      "max": [
        1,
        0.14834509789943695,
        1.0652051969373133e-06,
        1
      ],
      "min": [
        -6.4963181500843348e-09,
        -0.14834505319595337,
        -0.98964947462081909,
        -1
      ],
      "type": "VEC4"
    },
    {
      "bufferView": 1,
      "byteOffset": 2208,
      "componentType": 5126,
      "count": 93,
      "max": [
        0.625,
        0.90365612506866455
      ],
      "min": [
        0.375,
        0.16061995923519135
      ],
      "type": "VEC2"
    },
    {
      "bufferView": 0,
      "byteOffset": 3216,
      "componentType": 5125,
      "count": 183,
      "max": [
        92
      ],
      "min": [
        0
      ],
      "type": "SCALAR"
    },
    {
      "bufferView": 2,
      "byteOffset": 8856,
      "componentType": 5126,
      "count": 42,
      "max": [
        0.26104402542114258,
        0.65218436717987061,
        0.68592184782028198
      ],
      "min": [
        -0.27408558130264282,
        0.025564432144165039,
        -0.27994000911712646
      ],
      "type": "VEC3"
    },
    {
      "bufferView": 2,
      "byteOffset": 9360,
      "componentType": 5126,
      "count": 42,
      "max": [
        1,
        1,
        1
      ],
      "min": [
        -1,
        -1,
        -1
      ],
      "type": "VEC3"
    },
    {
      "bufferView": 3,
      "byteOffset": 5904,
      "componentType": 5126,
      "count": 42,
      "max": [
        1,
        0,
        0,
        1
      ],
      "min": [
        0,
        0,
        0,
        1
      ],
      "type": "VEC4"
    },
    {
      "bufferView": 1,
      "byteOffset": 2952,
      "componentType": 5126,
      "count": 42,
      "max": [
        0.56526100635528564,
        0.44498500227928162
      ],
      "min": [
        0.43147861957550049,
        0.13139089941978455
      ],
      "type": "VEC2"
    },
    {
      "bufferView": 0,
      "byteOffset": 3948,
      "componentType": 5125,
      "count": 72,
      "max": [
        41
      ],
      "min": [
        0
      ],
      "type": "SCALAR"
    },
    {
      "bufferView": 2,
      "byteOffset": 9864,
      "componentType": 5126,
      "count": 8,
      "max": [
        0.5,
        0.2970198392868042,
        0.24940294027328491
      ],
      "min": [
        -0.5,
        0.14248037338256836,
        -0.027377791702747345
      ],
      "type": "VEC3"
    },
    {
      "bufferView": 2,
      "byteOffset": 9960,
      "componentType": 5126,
      "count": 8,
      "max": [
        1,
        2.6146128817572389e-08,
        0
      ],
      "min": [
        -1,
        -1.3024529010863262e-08,
        0
      ],
      "type": "VEC3"
    },
    {
      "bufferView": 3,
      "byteOffset": 6576,
      "componentType": 5126,
      "count": 8,
      "max": [
        0,
        0,
        1,
        1
      ],
      "min": [
        0,
        0,
        -1,
        1
      ],
      "type": "VEC4"
    },
    {
      "bufferView": 1,
      "byteOffset": 3288,
      "componentType": 5126,
      "count": 8,
      "max": [
        0.75684446096420288,
        0.1992548406124115
      ],
      "min": [
        0.24315553903579712,
        0.16061994433403015
      ],
      "type": "VEC2"
    },
    {
      "bufferView": 0,
      "byteOffset": 4236,
      "componentType": 5125,
      "count": 12,
      "max": [
        7
      ],
      "min": [
        0
      ],
      "type": "SCALAR"
    },
    {
      "bufferView": 2,
      "byteOffset": 10056,
      "componentType": 5126,
      "count": 64,
      "max": [
        -0.28011798858642578,
        0.91177213191986084,
        1.1037592887878418
      ],
      "min": [
        -1.2801179885864258,
        0.66726064682006836,
        -0.77972030639648438
      ],
      "type": "VEC3"
    },
    {
      "bufferView": 2,
      "byteOffset": 10824,
      "componentType": 5126,
      "count": 64,
      "max": [
        1,
        1,
        1
      ],
      "min": [
        -1,
        -1,
        -1
      ],
      "type": "VEC3"
    },
    {
      "bufferView": 3,
      "byteOffset": 6704,
      "componentType": 5126,
      "count": 64,
      "max": [
        1,
        0.03115236759185791,
        1,
        1
      ],
      "min": [
        -1,
        -0.029519669711589813,
        -1,
        1
      ],
      "type": "VEC4"
    },
    {
      "bufferView": 1,
      "byteOffset": 3352,
      "componentType": 5126,
      "count": 64,
      "max": [
        1,
        1
      ],
      "min": [
        0,
        0
      ],
      "type": "VEC2"
    },
    {
      "bufferView": 0,
      "byteOffset": 4284,
      "componentType": 5125,
      "count": 132,
      "max": [
        63
      ],
      "min": [
        0
      ],
      "type": "SCALAR"
    },
    {
      "bufferView": 2,
      "byteOffset": 11592,
      "componentType": 5126,
      "count": 62,
      "max": [
        1.9850791692733765,
        1.2203699350357056,
        -1.1182258129119873
      ],
      "min": [
        0.98507916927337646,
        0.21231317520141602,
        -2.1182260513305664
      ],
      "type": "VEC3"
    },
    {
      "bufferView": 2,
      "byteOffset": 12336,
      "componentType": 5126,
      "count": 62,
      "max": [
        1,
        1,
        1
      ],
      "min": [
        -1,
        -1,
        -1
      ],
      "type": "VEC3"
    },
    {
      "bufferView": 3,
      "byteOffset": 7728,
      "componentType": 5126,
      "count": 62,
      "max": [
        1,
        0,
        1,
        1
      ],
      "min": [
        -1,
        0,
        -1,
        1
      ],
      "type": "VEC4"
    },
    {
      "bufferView": 1,
      "byteOffset": 3864,
      "componentType": 5126,
      "count": 62,
      "max": [
        1,
        1
      ],
      "min": [
        0,
        0
      ],
      "type": "VEC2"
    },
    {
      "bufferView": 0,
      "byteOffset": 4812,
      "componentType": 5125,
      "count": 126,
      "max": [
        61
      ],
      "min": [
        0
      ],
      "type": "SCALAR"
    }
  ],
  "asset": {
    "extras": {
      "author": "mahdo (https://sketchfab.com/mahdo)",
      "license": "CC-BY-4.0 (http://creativecommons.org/licenses/by/4.0/)",
      "source": "https://sketchfab.com/3d-models/crossy-road-b7e2910d0ffe4da5860dedf39a7131d1",
      "title": "Crossy Road"
    },
    "generator": "Sketchfab-6.90.0",
    "version": "2.0"
  },
  "bufferViews": [
    {
      "buffer": 0,
      "byteLength": 5316,
      "byteOffset": 0,
      "name": "floatBufferViews",
      "target": 34963
    },
    {
      "buffer": 0,
      "byteLength": 4360,
      "byteOffset": 5316,
      "byteStride": 8,
      "name": "floatBufferViews",
      "target": 34962
    },
    {
      "buffer": 0,
      "byteLength": 13080,
      "byteOffset": 9676,
      "byteStride": 12,
      "name": "floatBufferViews",
      "target": 34962
    },
    {
      "buffer": 0,
      "byteLength": 8720,
      "byteOffset": 22756,
      "byteStride": 16,
      "name": "floatBufferViews",
      "target": 34962
    }
  ],
  "buffers": [
    {
      "byteLength": 31476,
      "uri": "scene.bin"
    }
  ],
  "materials": [
    {
      "doubleSided": true,
      "emissiveFactor": [
        0,
        0,
        0
      ],
      "name": "phong5",
      "pbrMetallicRoughness": {
        "baseColorFactor": [
          1,
          1,
          1,
          1
        ],
        "metallicFactor": 0,
        "roughnessFactor": 1
      }
    },
    {
      "doubleSided": true,
      "emissiveFactor": [
        0,
        0,
        0
      ],
      "name": "phong2",
      "pbrMetallicRoughness": {
        "baseColorFactor": [
          0.78400000000000003,
          0.026133400000000001,
          0,
          1
        ],
        "metallicFactor": 0,
        "roughnessFactor": 1
      }
    },
    {
      "doubleSided": true,
      "emissiveFactor": [
        0,
        0,
        0
      ],
      "name": "phong3",
      "pbrMetallicRoughness": {
        "baseColorFactor": [
          0.31230000000000002,
          0.042799999999999998,
          0.077899999999999997,
          1
        ],
        "metallicFactor": 0,
        "roughnessFactor": 1
      }
    },
    {
      "doubleSided": true,
      "emissiveFactor": [
        0,
        0,
        0
      ],
      "name": "phong4",
      "pbrMetallicRoughness": {
        "baseColorFactor": [
          0,
          0,
          0,
          1
        ],
        "metallicFactor": 0,
        "roughnessFactor": 1
      }
    }
  ],
  "meshes": [
    {
      "name": "pCube1_phong5_0",
      "primitives": [
        {
          "attributes": {
            "NORMAL": 1,
            "POSITION": 0,
            "TANGENT": 2,
            "TEXCOORD_0": 3
          },
          "indices": 4,
          "material": 0,
          "mode": 4
        }
      ]
    },
    {
      "name": "pCube1_phong2_0",
      "primitives": [
        {
          "attributes": {
            "NORMAL": 6,
            "POSITION": 5,
            "TANGENT": 7,
            "TEXCOORD_0": 8
          },
          "indices": 9,
          "material": 1,
          "mode": 4
        }
      ]
    },
    {
      "name": "pCube1_phong3_0",
      "primitives": [
        {
          "attributes": {
            "NORMAL": 11,
            "POSITION": 10,
            "TANGENT": 12,
            "TEXCOORD_0": 13
          },
          "indices": 14,
          "material": 2,
          "mode": 4
        }
      ]
    },
    {
      "name": "pCube1_phong4_0",
      "primitives": [
        {
          "attributes": {
            "NORMAL": 16,
            "POSITION": 15,
            "TANGENT": 17,
            "TEXCOORD_0": 18
          },
          "indices": 19,
          "material": 3,
          "mode": 4
        }
      ]
    },
    {
      "name": "pCube2_phong2_0",
      "primitives": [
        {
          "attributes": {
            "NORMAL": 21,
            "POSITION": 20,
            "TANGENT": 22,
            "TEXCOORD_0": 23
          },
          "indices": 24,
          "material": 1,
          "mode": 4
        }
      ]
    },
    {
      "name": "pCube4_phong2_0",
      "primitives": [
        {
          "attributes": {
            "NORMAL": 26,
            "POSITION": 25,
            "TANGENT": 27,
            "TEXCOORD_0": 28
          },
          "indices": 29,
          "material": 1,
          "mode": 4
        }
      ]
    }
  ],
  "nodes": [
    {
      "children": [
        1
      ],
      "name": "RootNode (gltf orientation matrix)",
      "rotation": [
        -0.70710678118654746,
        -0,
        -0,
        0.70710678118654757
      ]
    },
    {
      "children": [
        2
      ],
      "name": "RootNode (model correction matrix)"
    },
    {
      "children": [
        3
      ],
      "matrix": [
        1,
        0,
        0,
        0,
        0,
        0,
        1,
        0,
        0,
        -1,
        0,
        0,
        0,
        0,
        0,
        1
      ],
      "name": "e5b955741be1463fbeee462725f110b6.fbx"
    },
    {
      "children": [
        4,
        9,
        11
      ],
      "name": "RootNode"
    },
    {
      "children": [
        5,
        6,
        7,
        8
      ],
      "matrix": [
        1.9557374715805054,
        0,
        0,
        0,
        0,
        3.0211074352264404,
        0,
        0,
        0,
        0,
        1.9557374715805054,
        0,
        -5.6536154747009277,
        3.6657474040985107,
        0,
        1
      ],
      "name": "pCube1"
    },
    {
      "mesh": 0,
      "name": "pCube1_phong5_0"
    },
    {
      "mesh": 1,
      "name": "pCube1_phong2_0"
    },
    {
      "mesh": 2,
      "name": "pCube1_phong3_0"
    },
    {
      "mesh": 3,
      "name": "pCube1_phong4_0"
    },
    {
      "children": [
        10
      ],
      "matrix": [
        1,
        0,
        0,
        0,
        0,
        1,
        0,
        0,
        0,
        0,
        1,
        0,
        -5.6536154747009277,
        0,
        0,
        1
      ],
      "name": "pCube2"
    },
    {
      "mesh": 4,
      "name": "pCube2_phong2_0"
    },
    {
      "children": [
        12
      ],
      "matrix": [
        1,
        0,
        0,
        0,
        0,
        0.29439908266067505,
        0,
        0,
        0,
        0,
        1.7697969675064087,
        0,
        -6.3737058639526367,
        0.56337964534759521,
        2.9277961254119873,
        1
      ],
      "name": "pCube4"
    },
    {
      "mesh": 5,
      "name": "pCube4_phong2_0"
    }
  ],
  "scene": 0,
  "scenes": [
    {
      "name": "OSG_Scene",
      "nodes": [
        0
      ]
    }
  ]
}

