{
  "accessors": [
    {
      "bufferView": 1,
      "componentType": 5126,
      "count": 639,
      "max": [
        0.27000001072883606,
        0.34999999403953552,
        1.6499999761581421
      ],
      "min": [
        -0.25,
        -0.84997999668121338,
        0.98000001907348633
      ],
      "type": "VEC3"
    },
    {
      "bufferView": 1,
      "byteOffset": 7668,
      "componentType": 5126,
      "count": 639,
      "max": [
        1,
        1,
        1
      ],
      "min": [
        -1,
        -1,
        -1
      ],
      "type": "VEC3"
    },
    {
      "bufferView": 0,
      "componentType": 5125,
      "count": 1800,
      "max": [
        638
      ],
      "min": [
        0
      ],
      "type": "SCALAR"
    },
    {
      "bufferView": 1,
      "byteOffset": 15336,
      "componentType": 5126,
      "count": 137,
      "max": [
        0.05000000074505806,
        0.05000000074505806,
        1
      ],
      "min": [
        -0.05000000074505806,
        -0.05000000074505806,
        0
      ],
      "type": "VEC3"
    },
    {
      "bufferView": 1,
      "byteOffset": 16980,
      "componentType": 5126,
      "count": 137,
      "max": [
        0.94868236780166626,
        0.94868236780166626,
        1
      ],
      "min": [
        -0.94868236780166626,
        -0.94868236780166626,
        -1
      ],
      "type": "VEC3"
    },
    {
      "bufferView": 0,
      "byteOffset": 7200,
      "componentType": 5125,
      "count": 336,
      "max": [
        136
      ],
      "min": [
        0
      ],
      "type": "SCALAR"
    },
    {
      "bufferView": 1,
      "byteOffset": 18624,
      "componentType": 5126,
      "count": 246,
      "max": [
        0.21799999475479126,
        0.31000000238418579,
        1.2798000574111938
      ],
      "min": [
        -0.20893000066280365,
        -0.31000000238418579,
        1.0134299993515015
      ],
      "type": "VEC3"
    },
    {
      "bufferView": 1,
      "byteOffset": 21576,
      "componentType": 5126,
      "count": 246,
      "max": [
        0.98480755090713501,
        1,
        0.98480755090713501
      ],
      "min": [
        -0.98480755090713501,
        -1,
        -0.98480755090713501
      ],
      "type": "VEC3"
    },
    {
      "bufferView": 0,
      "byteOffset": 8544,
      "componentType": 5125,
      "count": 480,
      "max": [
        245
      ],
      "min": [
        0
      ],
      "type": "SCALAR"
    }
  ],
  "asset": {
    "extras": {
      "author": "Jens (https://sketchfab.com/excitedneon)",
      "license": "CC-BY-SA-4.0 (http://creativecommons.org/licenses/by-sa/4.0/)",
      "source": "https://sketchfab.com/models/357acbf2a0d04aa591a7d71982af0436",
      "title": "#30Days3D - Day 3 - Mail Box"
    },
    "generator": "Sketchfab-3.18.7",
    "version": "2.0"
  },
  "bufferViews": [
    {
      "buffer": 0,
      "byteLength": 10464,
      "byteOffset": 0,
      "name": "floatBufferViews",
      "target": 34963
    },
    {
      "buffer": 0,
      "byteLength": 24528,
      "byteOffset": 10464,
      "byteStride": 12,
      "name": "floatBufferViews",
      "target": 34962
    }
  ],
  "buffers": [
    {
      "byteLength": 34992,
      "uri": "scene.bin"
    }
  ],
  "materials": [
    {
      "doubleSided": true,
      "emissiveFactor": [
        0,
        0,
        0
      ],
      "name": "Paper",
      "pbrMetallicRoughness": {
        "baseColorFactor": [
          1,
          0.88538157939999995,
          0.67135298249999997,
          1
        ],
        "metallicFactor": 0,
        "roughnessFactor": 0.59999999999999998
      }
    },
    {
      "doubleSided": true,
      "emissiveFactor": [
        0,
        0,
        0
      ],
      "name": "Red_Metal",
      "pbrMetallicRoughness": {
        "baseColorFactor": [
          0.80000007149999997,
          0.020925017099999998,
          0.015837308000000001,
          1
        ],
        "metallicFactor": 0,
        "roughnessFactor": 0.59999999999999998
      }
    },
    {
      "doubleSided": true,
      "emissiveFactor": [
        0,
        0,
        0
      ],
      "name": "Gray_Metal",
      "pbrMetallicRoughness": {
        "baseColorFactor": [
          0.51733291150000005,
          0.51733291150000005,
          0.51733291150000005,
          1
        ],
        "metallicFactor": 0,
        "roughnessFactor": 0.59999999999999998
      }
    }
  ],
  "meshes": [
    {
      "name": "Mailbox_0",
      "primitives": [
        {
          "attributes": {
            "NORMAL": 1,
            "POSITION": 0
          },
          "indices": 2,
          "material": 1,
          "mode": 4
        }
      ]
    },
    {
      "name": "Mailbox_1",
      "primitives": [
        {
          "attributes": {
            "NORMAL": 4,
            "POSITION": 3
          },
          "indices": 5,
          "material": 2,
          "mode": 4
        }
      ]
    },
    {
      "name": "Letters_0",
      "primitives": [
        {
          "attributes": {
            "NORMAL": 7,
            "POSITION": 6
          },
          "indices": 8,
          "material": 0,
          "mode": 4
        }
      ]
    }
  ],
  "nodes": [
    {
      "children": [
        1
      ],
      "name": "RootNode (gltf orientation matrix)",
      "rotation": [
        -0.70710678118654746,
        -0,
        -0,
        0.70710678118654757
      ]
    },
    {
      "children": [
        2
      ],
      "name": "RootNode (model correction matrix)"
    },
    {
      "children": [
        3,
        6
      ],
      "name": "Root"
    },
    {
      "children": [
        4,
        5
      ],
      "name": "Mailbox"
    },
    {
      "mesh": 0,
      "name": "Mailbox_0"
    },
    {
      "mesh": 1,
      "name": "Mailbox_1"
    },
    {
      "children": [
        7
      ],
      "name": "Letters"
    },
    {
      "mesh": 2,
      "name": "Letters_0"
    }
  ],
  "scene": 0,
  "scenes": [
    {
      "name": "OSG_Scene",
      "nodes": [
        0
      ]
    }
  ]
}

