{
  "accessors": [
    {
      "bufferView": 1,
      "componentType": 5126,
      "count": 244,
      "max": [
        85.52935791015625,
        117.6669921875,
        75.783348083496094
      ],
      "min": [
        -82.556793212890625,
        -38.123161315917969,
        -77.181365966796875
      ],
      "type": "VEC3"
    },
    {
      "bufferView": 1,
      "byteOffset": 2928,
      "componentType": 5126,
      "count": 244,
      "max": [
        0.97675961256027222,
        0.87692254781723022,
        0.99943560361862183
      ],
      "min": [
        -0.94632154703140259,
        -0.99573320150375366,
        -0.99974864721298218
      ],
      "type": "VEC3"
    },
    {
      "bufferView": 2,
      "componentType": 5126,
      "count": 244,
      "max": [
        0.98207831382751465,
        0.87203645706176758,
        0.98251432180404663,
        1
      ],
      "min": [
        -0.98830682039260864,
        -0.97369295358657837,
        -0.9679025411605835,
        -1
      ],
      "type": "VEC4"
    },
    {
      "bufferView": 0,
      "componentType": 5125,
      "count": 348,
      "max": [
        243
      ],
      "min": [
        0
      ],
      "type": "SCALAR"
    },
    {
      "bufferView": 1,
      "byteOffset": 5856,
      "componentType": 5126,
      "count": 244,
      "max": [
        127.95790863037109,
        187.00717163085938,
        121.741943359375
      ],
      "min": [
        -123.5107421875,
        -60.588821411132812,
        -123.98778533935547
      ],
      "type": "VEC3"
    },
    {
      "bufferView": 1,
      "byteOffset": 8784,
      "componentType": 5126,
      "count": 244,
      "max": [
        0.97946596145629883,
        0.87736755609512329,
        0.99935996532440186
      ],
      "min": [
        -0.95225131511688232,
        -0.99571633338928223,
        -0.99971944093704224
      ],
      "type": "VEC3"
    },
    {
      "bufferView": 2,
      "byteOffset": 3904,
      "componentType": 5126,
      "count": 244,
      "max": [
        0.97984421253204346,
        0.88419610261917114,
        0.98421090841293335,
        1
      ],
      "min": [
        -0.98682129383087158,
        -0.97658699750900269,
        -0.96857017278671265,
        -1
      ],
      "type": "VEC4"
    },
    {
      "bufferView": 0,
      "byteOffset": 1392,
      "componentType": 5125,
      "count": 348,
      "max": [
        243
      ],
      "min": [
        0
      ],
      "type": "SCALAR"
    },
    {
      "bufferView": 1,
      "byteOffset": 11712,
      "componentType": 5126,
      "count": 244,
      "max": [
        266.5789794921875,
        141.078369140625,
        249.91726684570312
      ],
      "min": [
        -257.31405639648438,
        -251.93113708496094,
        -254.52763366699219
      ],
      "type": "VEC3"
    },
    {
      "bufferView": 1,
      "byteOffset": 14640,
      "componentType": 5126,
      "count": 244,
      "max": [
        0.96973776817321777,
        0.92129713296890259,
        0.99931985139846802
      ],
      "min": [
        -0.9290345311164856,
        -0.99744629859924316,
        -0.99967759847640991
      ],
      "type": "VEC3"
    },
    {
      "bufferView": 2,
      "byteOffset": 7808,
      "componentType": 5126,
      "count": 244,
      "max": [
        0.9881056547164917,
        0.82180708646774292,
        0.98651736974716187,
        1
      ],
      "min": [
        -0.99215483665466309,
        -0.96065789461135864,
        -0.98078775405883789,
        1
      ],
      "type": "VEC4"
    },
    {
      "bufferView": 0,
      "byteOffset": 2784,
      "componentType": 5125,
      "count": 348,
      "max": [
        243
      ],
      "min": [
        0
      ],
      "type": "SCALAR"
    },
    {
      "bufferView": 1,
      "byteOffset": 17568,
      "componentType": 5126,
      "count": 510,
      "max": [
        185.95091247558594,
        759.01678466796875,
        229.31193542480469
      ],
      "min": [
        -153.12968444824219,
        -153.45034790039062,
        -215.18994140625
      ],
      "type": "VEC3"
    },
    {
      "bufferView": 1,
      "byteOffset": 23688,
      "componentType": 5126,
      "count": 510,
      "max": [
        0.93799179792404175,
        1,
        0.94623070955276489
      ],
      "min": [
        -0.94472479820251465,
        -1,
        -0.94721055030822754
      ],
      "type": "VEC3"
    },
    {
      "bufferView": 2,
      "byteOffset": 11712,
      "componentType": 5126,
      "count": 510,
      "max": [
        0.93669533729553223,
        0.99987322092056274,
        0.94361770153045654,
        1
      ],
      "min": [
        -0.99993526935577393,
        -0.98685091733932495,
        -0.99589008092880249,
        -1
      ],
      "type": "VEC4"
    },
    {
      "bufferView": 0,
      "byteOffset": 4176,
      "componentType": 5125,
      "count": 792,
      "max": [
        509
      ],
      "min": [
        0
      ],
      "type": "SCALAR"
    }
  ],
  "asset": {
    "extras": {
      "author": "joeantani (https://sketchfab.com/joeantani)",
      "license": "CC-BY-4.0 (http://creativecommons.org/licenses/by/4.0/)",
      "source": "https://sketchfab.com/models/cd5a7dc13ea8469e81a7908090e96b8e",
      "title": "LowPoly Tree"
    },
    "generator": "Sketchfab-3.23.0",
    "version": "2.0"
  },
  "bufferViews": [
    {
      "buffer": 0,
      "byteLength": 7344,
      "byteOffset": 0,
      "name": "floatBufferViews",
      "target": 34963
    },
    {
      "buffer": 0,
      "byteLength": 29808,
      "byteOffset": 7344,
      "byteStride": 12,
      "name": "floatBufferViews",
      "target": 34962
    },
    {
      "buffer": 0,
      "byteLength": 19872,
      "byteOffset": 37152,
      "byteStride": 16,
      "name": "floatBufferViews",
      "target": 34962
    }
  ],
  "buffers": [
    {
      "byteLength": 57024,
      "uri": "scene.bin"
    }
  ],
  "materials": [
    {
      "doubleSided": true,
      "emissiveFactor": [
        0,
        0,
        0
      ],
      "name": "Chiome",
      "pbrMetallicRoughness": {
        "baseColorFactor": [
          0.10163999999999999,
          0.66000000000000003,
          0.039600000000000003,
          1
        ],
        "metallicFactor": 0,
        "roughnessFactor": 0.89625284790000004
      }
    },
    {
      "doubleSided": true,
      "emissiveFactor": [
        0,
        0,
        0
      ],
      "name": "Legno",
      "pbrMetallicRoughness": {
        "baseColorFactor": [
          0.46000000000000002,
          0.18024299999999999,
          0.050599999999999999,
          1
        ],
        "metallicFactor": 0,
        "roughnessFactor": 0.88686291500000003
      }
    }
  ],
  "meshes": [
    {
      "name": "piccolo_1_Chiome_0",
      "primitives": [
        {
          "attributes": {
            "NORMAL": 1,
            "POSITION": 0,
            "TANGENT": 2
          },
          "indices": 3,
          "material": 0,
          "mode": 4
        }
      ]
    },
    {
      "name": "piccolo_Chiome_0",
      "primitives": [
        {
          "attributes": {
            "NORMAL": 5,
            "POSITION": 4,
            "TANGENT": 6
          },
          "indices": 7,
          "material": 0,
          "mode": 4
        }
      ]
    },
    {
      "name": "piccolo2_Chiome_0",
      "primitives": [
        {
          "attributes": {
            "NORMAL": 9,
            "POSITION": 8,
            "TANGENT": 10
          },
          "indices": 11,
          "material": 0,
          "mode": 4
        }
      ]
    },
    {
      "name": "Cylinder_Legno_0",
      "primitives": [
        {
          "attributes": {
            "NORMAL": 13,
            "POSITION": 12,
            "TANGENT": 14
          },
          "indices": 15,
          "material": 1,
          "mode": 4
        }
      ]
    }
  ],
  "nodes": [
    {
      "children": [
        1
      ],
      "name": "RootNode (gltf orientation matrix)",
      "rotation": [
        -0.70710678118654746,
        -0,
        -0,
        0.70710678118654757
      ]
    },
    {
      "children": [
        2
      ],
      "name": "RootNode (model correction matrix)"
    },
    {
      "children": [
        3
      ],
      "matrix": [
        1,
        0,
        0,
        0,
        0,
        0,
        1,
        0,
        0,
        -1,
        0,
        0,
        0,
        0,
        0,
        1
      ],
      "name": "14d63ffa2ed24f89bb3857d2b0449b25.fbx"
    },
    {
      "children": [
        4,
        6
      ],
      "name": "RootNode"
    },
    {
      "children": [
        5
      ],
      "matrix": [
        -0.94281610632763391,
        -0.33298412234968106,
        -0.014810938937565261,
        0,
        -0.33294304292486038,
        0.94293243356192424,
        -0.0052302872695447096,
        0,
        0.015707317311821525,
        1.4137996329210978e-16,
        -0.99987663248166059,
        0,
        1266.0430908203125,
        966.12542724609375,
        -13.749930381774902,
        1
      ],
      "name": "CINEMA_4D_Editor"
    },
    {
      "name": ""
    },
    {
      "children": [
        7,
        9,
        11,
        13
      ],
      "matrix": [
        1,
        0,
        0,
        0,
        0,
        1,
        0,
        0,
        0,
        0,
        1,
        0,
        24.500278472900391,
        570.21044921875,
        0.01781081035733223,
        1
      ],
      "name": "Albero_1"
    },
    {
      "children": [
        8
      ],
      "matrix": [
        0.2091178362078564,
        0,
        -0.9778904491709407,
        0,
        0,
        1,
        0,
        0,
        0.9778904491709407,
        0,
        0.2091178362078564,
        0,
        86.276863098144531,
        156.81913757324219,
        214.86076354980469,
        1
      ],
      "name": "piccolo_1"
    },
    {
      "mesh": 0,
      "name": "piccolo_1_Chiome_0"
    },
    {
      "children": [
        10
      ],
      "matrix": [
        0.086793243380890783,
        0,
        0.99622634622028827,
        0,
        0,
        1,
        0,
        0,
        -0.99622634622028827,
        0,
        0.086793243380890783,
        0,
        150.00323486328125,
        32.552696228027344,
        -214.82514953613281,
        1
      ],
      "name": "piccolo"
    },
    {
      "mesh": 1,
      "name": "piccolo_Chiome_0"
    },
    {
      "children": [
        12
      ],
      "matrix": [
        0.7652628656509769,
        0,
        -0.64371790906860349,
        0,
        0,
        1,
        0,
        0,
        0.64371790906860349,
        0,
        0.7652628656509769,
        0,
        -211.77983093261719,
        318.25015258789062,
        -0.01781081035733223,
        1
      ],
      "name": "piccolo2"
    },
    {
      "mesh": 2,
      "name": "piccolo2_Chiome_0"
    },
    {
      "children": [
        14
      ],
      "matrix": [
        1,
        0,
        0,
        0,
        0,
        1,
        0,
        0,
        0,
        0,
        1,
        0,
        -24.500278472900391,
        -507.62197875976562,
        -0.01781081035733223,
        1
      ],
      "name": "Cylinder"
    },
    {
      "mesh": 3,
      "name": "Cylinder_Legno_0"
    }
  ],
  "scene": 0,
  "scenes": [
    {
      "name": "OSG_Scene",
      "nodes": [
        0
      ]
    }
  ]
}

